<?xml version="1.0" encoding="UTF-8" standalone="no"?>
<svg width="82px" height="70px" viewBox="0 0 82 70" version="1.1" xmlns="http://www.w3.org/2000/svg" xmlns:xlink="http://www.w3.org/1999/xlink">
    <!-- Generator: Sketch 3.6.1 (26313) - http://www.bohemiancoding.com/sketch -->
    <title>Group</title>
    <desc>Created with Sketch.</desc>
    <defs></defs>
    <g id="Page-1" stroke="none" stroke-width="1" fill="none" fill-rule="evenodd">
        <g id="noun_11666_cc" transform="translate(-9.000000, 0.000000)" fill="#000000">
            <g id="Group">
                <g transform="translate(9.000000, 0.000000)" id="Shape">
                    <g transform="translate(0.000000, 28.000000)">
                        <path d="M12.737,35.267 C7.344,35.267 2.963,27.839 2.963,18.686 C2.963,9.534 7.345,2.114 12.737,2.114 L30.679,2.114 C25.28,2.114 20.905,9.534 20.905,18.686 C20.905,27.839 25.28,35.267 30.679,35.267 L12.737,35.267 L12.737,35.267 Z"></path>
                        <path d="M30.699,37.267 C30.692,37.266 30.686,37.266 30.679,37.267 L12.737,37.267 C6.134,37.267 0.963,29.105 0.963,18.686 C0.963,8.272 6.135,0.114 12.737,0.114 L30.679,0.114 C31.783,0.114 32.679,1.01 32.679,2.114 C32.679,3.218 31.783,4.114 30.679,4.114 C26.465,4.114 22.905,10.787 22.905,18.686 C22.905,26.589 26.465,33.267 30.679,33.267 C30.682,33.266 30.686,33.267 30.689,33.267 L30.699,33.267 C31.803,33.267 32.699,34.163 32.699,35.267 C32.699,36.371 31.803,37.267 30.699,37.267 L30.699,37.267 Z M12.737,4.113 C8.523,4.113 4.963,10.786 4.963,18.685 C4.963,26.588 8.523,33.266 12.737,33.266 L23.299,33.266 C20.605,29.889 18.905,24.658 18.905,18.685 C18.905,12.715 20.604,7.488 23.298,4.113 L12.737,4.113 L12.737,4.113 Z"></path>
                    </g>
                    <path d="M44.594,69.365 C41.374,69.365 38.371,69.007 36.712,68.623 C29.654,66.992 27.291,60.201 27.027,56.839 C26.941,55.737 27.763,54.776 28.864,54.689 C29.97,54.603 30.927,55.425 31.014,56.527 C31.038,56.798 31.674,63.354 37.613,64.727 C41.983,65.739 50.731,65.682 53.264,63.704 C54.132,63.025 55.391,63.178 56.072,64.049 C56.752,64.919 56.597,66.176 55.727,66.857 C53.281,68.767 48.756,69.365 44.594,69.365 L44.594,69.365 Z"></path>
                    <path d="M43.971,50.362 C43.024,50.362 42.183,49.687 42.006,48.723 C41.806,47.637 42.526,46.594 43.611,46.395 C43.817,46.354 49.001,45.26 51.26,39.19 C53.974,31.893 48.638,25.006 48.584,24.938 C48.002,24.202 48.008,23.155 48.603,22.428 C51.068,19.415 51.547,16.515 51.515,14.613 C51.5,13.917 51.196,10.21 46.604,6.435 C44.113,4.396 43.129,4.356 41.781,4.97 C41.866,5.651 42.465,7.044 42.84,7.919 C43.555,9.585 44.294,11.308 44.247,12.858 C44.175,15.404 44.022,20.707 39.325,27.132 C34.715,33.473 25.813,35.084 25.437,35.15 C24.346,35.333 23.313,34.611 23.124,33.522 C22.935,32.434 23.662,31.4 24.749,31.21 C24.847,31.192 32.45,29.787 36.093,24.776 C40.06,19.349 40.178,15.213 40.249,12.741 C40.269,12.072 39.656,10.643 39.164,9.496 C38.079,6.968 36.439,3.145 39.721,1.521 C43.436,-0.326 46.176,0.915 49.14,3.341 C54.939,8.108 55.485,13.115 55.515,14.537 C55.546,16.442 55.184,20.007 52.617,23.738 C54.36,26.478 57.759,33.192 55.009,40.583 C51.936,48.843 44.643,50.271 44.334,50.327 C44.212,50.352 44.09,50.362 43.971,50.362 L43.971,50.362 Z"></path>
                    <g transform="translate(50.000000, 21.000000)">
                        <path d="M20.199,31.396 C16.08,31.396 11.35,30.32 9.545,28.323 C7.991,26.612 7.314,22.927 8.829,20.382 C9.662,18.986 11.826,16.826 16.978,18.092 C18.051,18.356 18.707,19.439 18.444,20.511 C18.179,21.584 17.092,22.236 16.025,21.977 C14.887,21.699 12.887,21.386 12.266,22.429 C11.665,23.437 12.131,25.222 12.508,25.637 C13.679,26.933 20.85,28.157 23.899,26.895 C24.984,26.45 26.374,25.629 26.852,24.243 C27.303,22.935 26.929,21.211 25.74,19.118 C25.195,18.157 25.531,16.936 26.491,16.39 C27.455,15.846 28.673,16.18 29.219,17.141 C31,20.278 31.476,23.106 30.634,25.548 C29.869,27.763 28.068,29.508 25.423,30.594 C24.112,31.135 22.229,31.396 20.199,31.396 L20.199,31.396 Z"></path>
                        <path d="M19.637,22.356 C15.597,22.357 10.964,21.15 9.211,19.209 C7.702,17.529 7.029,14.091 8.426,11.643 C9.212,10.265 11.297,8.105 16.422,9.136 C17.505,9.354 18.207,10.408 17.989,11.49 C17.77,12.573 16.715,13.271 15.635,13.057 C14.715,12.873 12.51,12.558 11.901,13.625 C11.379,14.54 11.83,16.138 12.184,16.532 C13.35,17.823 20.543,19.156 23.008,17.823 C24.777,16.866 26.182,13.536 25.416,10.513 C24.457,6.73 20.476,4.646 14.204,4.646 C13.1,4.646 12.204,3.75 12.204,2.646 C12.204,1.542 13.1,0.646 14.204,0.646 C25.791,0.646 28.617,6.86 29.294,9.531 C30.453,14.107 28.487,19.405 24.912,21.341 C23.622,22.039 21.707,22.356 19.637,22.356 L19.637,22.356 Z"></path>
                        <path d="M15.798,41.117 C12.183,41.117 8.32,39.959 6.58,38.033 C5.004,36.296 4.241,32.384 5.673,29.553 C6.403,28.107 8.332,25.749 13.009,26.236 C14.108,26.348 14.907,27.331 14.794,28.429 C14.682,29.527 13.713,30.337 12.601,30.214 C9.946,29.943 9.419,31.007 9.243,31.357 C8.557,32.714 9.101,34.859 9.546,35.349 C10.883,36.828 16.163,37.761 18.96,36.613 C20.1,36.139 21.328,32.726 21.096,31.68 C20.781,30.621 21.385,29.514 22.443,29.199 C23.499,28.884 24.618,29.492 24.933,30.551 C25.705,33.138 23.799,38.937 20.487,40.311 C19.142,40.861 17.497,41.117 15.798,41.117 L15.798,41.117 Z"></path>
                        <path d="M9.593,47.348 C6.44,47.348 3.105,46.327 1.537,44.605 C0.122,43.033 -0.556,39.536 0.721,37.017 C1.381,35.715 3.118,33.6 7.29,34.014 C8.39,34.124 9.191,35.105 9.081,36.203 C8.971,37.301 7.993,38.105 6.892,37.994 C4.835,37.785 4.437,38.546 4.304,38.796 C3.764,39.812 4.166,41.516 4.506,41.924 C5.468,42.981 9.827,43.916 12.237,42.92 C13.074,42.573 13.682,40.86 13.827,39.426 C13.938,38.327 14.907,37.522 16.019,37.638 C17.118,37.75 17.918,38.731 17.807,39.83 C17.68,41.081 17.013,45.268 13.767,46.616 C12.559,47.115 11.096,47.348 9.593,47.348 L9.593,47.348 Z"></path>
                    </g>
                </g>
            </g>
        </g>
    </g>
</svg>